# xmcd
#
# Track frame offsets:
#	150
#	11763
#	22142
#	37442
#	46887
#	60051
#	69576
#	78935
#	93102
#	103190
#	127702
#	147124
#	160503
#	176757
#	189402
#	203254
#	218035
#	229646
#	243171
#	253735
#
# Disc length: 3588 seconds
#
# Revision: 1
# Processed by: cddbd v1.4PL0 Copyright (c) Steve Scherf et al.
# Submitted via: EasyCDDAExtractor 5.0.6
#
DISCID=fd0e0214
DTITLE=Big Joe Williams - Big Joe Williams Absolutely the Best
DYEAR=2001
DGENRE=blues
TTITLE0=Cottage Grove
TTITLE1=Meet Me in the Bottom
TTITLE2=Bessemer Baby
TTITLE3=Baby Please Don't Go - Track 1
TTITLE4=Baby Please Don't Go - Track 2
TTITLE5=Shake Your Boogie
TTITLE6=Jump Baby Jump
TTITLE7=Mean Mistreater
TTITLE8=Prison Bound
TTITLE9=Chain Gang Blues (w/Hopkins, Sonny and Brownie)
TTITLE10=Razor Sharp Blues
TTITLE11=I Feel So Worried
TTITLE12=So Soon I'll Be Goin' My Way Back Home
TTITLE13=Shake 'Em On Down
TTITLE14=Don't You Leave Me Here
TTITLE15=Fickle Pickle
TTITLE16=Ramblin' and Wanderin' Blues
TTITLE17=Don't the Apples Look Mellow
TTITLE18=El Paso Blues
TTITLE19=Shaggy Hound Blues
EXTD=
EXTT0=
EXTT1=
EXTT2=
EXTT3=
EXTT4=
EXTT5=
EXTT6=
EXTT7=
EXTT8=
EXTT9=
EXTT10=
EXTT11=
EXTT12=
EXTT13=
EXTT14=
EXTT15=
EXTT16=
EXTT17=
EXTT18=
EXTT19=
PLAYORDER=
